# xmcd
#
# Track frame offsets: 
#        150
#        14945
#        38360
#        47925
#        78605
#        89170
#        97285
#        125997
#        141595
#        173307
#        182490
#        195985
#        201477
#
# Disc length: 3053 seconds
#
# Revision: 2
# Processed by: cddbd v1.5.2PL0 Copyright (c) Steve Scherf et al.
# Submitted via: ExactAudioCopy v0.99pb5
#
DISCID=c30beb0d
DTITLE=Roy Buchanan - Malaguena
DYEAR=1900
DGENRE=Blues
TTITLE0=My Baby Is Sweeter
TTITLE1=Minor Changes
TTITLE2=Rambunctious
TTITLE3=Malaguena
TTITLE4=I Found You
TTITLE5=Let's Twist Again
TTITLE6=Park Boulevard Blues
TTITLE7=Custom Made
TTITLE8=After Hours
TTITLE9=Peter Gunn
TTITLE10=Chowbay
TTITLE11=Peace Cross
TTITLE12=My Baby Is Sweeter
EXTD=
EXTT0=
EXTT1=
EXTT2=
EXTT3=
EXTT4=
EXTT5=
EXTT6=
EXTT7=
EXTT8=
EXTT9=
EXTT10=
EXTT11=
EXTT12=Alternate Take\n
PLAYORDER=
